<mxfile host="app.diagrams.net" agent="Mozilla/5.0 (Windows NT 10.0; Win64; x64) AppleWebKit/537.36 (KHTML, like Gecko) Chrome/134.0.0.0 Safari/537.36" version="26.1.1">
  <diagram name="PÃ¡gina-1" id="Kg3WyapHK7YK6qS1Xk8n">
    <mxGraphModel dx="1112" dy="1187" grid="1" gridSize="10" guides="1" tooltips="1" connect="1" arrows="1" fold="1" page="0" pageScale="1" pageWidth="827" pageHeight="1169" math="0" shadow="0">
      <root>
        <mxCell id="0" />
        <mxCell id="1" parent="0" />
        <mxCell id="rQMtVm5NqOiZtZH3bKjH-17" value="IVuelo" style="swimlane;fontStyle=0;childLayout=stackLayout;horizontal=1;startSize=28;fillColor=none;horizontalStack=0;resizeParent=1;resizeParentMax=0;resizeLast=0;collapsible=1;marginBottom=0;whiteSpace=wrap;html=1;autosize=1;swimlaneFillColor=none;" vertex="1" parent="1">
          <mxGeometry x="-270" y="-110" width="155" height="69" as="geometry" />
        </mxCell>
        <mxCell id="rQMtVm5NqOiZtZH3bKjH-18" value="+ operarVuelo() String&lt;div&gt;+ getDuracionVuelo() int;&lt;/div&gt;" style="text;strokeColor=none;fillColor=none;align=left;verticalAlign=top;spacingLeft=4;spacingRight=4;overflow=hidden;rotatable=0;points=[[0,0.5],[1,0.5]];portConstraint=eastwest;whiteSpace=wrap;html=1;autosize=1;" vertex="1" parent="rQMtVm5NqOiZtZH3bKjH-17">
          <mxGeometry y="28" width="155" height="41" as="geometry" />
        </mxCell>
        <mxCell id="rQMtVm5NqOiZtZH3bKjH-21" value="EstadoVuelo" style="swimlane;fontStyle=0;childLayout=stackLayout;horizontal=1;startSize=27;fillColor=none;horizontalStack=0;resizeParent=1;resizeParentMax=0;resizeLast=0;collapsible=1;marginBottom=0;whiteSpace=wrap;html=1;autosize=1;" vertex="1" parent="1">
          <mxGeometry x="360" y="-80" width="140" height="53" as="geometry" />
        </mxCell>
        <mxCell id="rQMtVm5NqOiZtZH3bKjH-22" value="Enum estado" style="text;strokeColor=none;fillColor=none;align=left;verticalAlign=top;spacingLeft=4;spacingRight=4;overflow=hidden;rotatable=0;points=[[0,0.5],[1,0.5]];portConstraint=eastwest;whiteSpace=wrap;html=1;autosize=1;" vertex="1" parent="rQMtVm5NqOiZtZH3bKjH-21">
          <mxGeometry y="27" width="140" height="26" as="geometry" />
        </mxCell>
        <mxCell id="rQMtVm5NqOiZtZH3bKjH-29" value="Piloto" style="swimlane;fontStyle=1;align=center;verticalAlign=top;childLayout=stackLayout;horizontal=1;startSize=30;horizontalStack=0;resizeParent=1;resizeParentMax=0;resizeLast=0;collapsible=1;marginBottom=0;whiteSpace=wrap;html=1;autosize=1;" vertex="1" parent="1">
          <mxGeometry x="-80" y="-80" width="160" height="208" as="geometry" />
        </mxCell>
        <mxCell id="rQMtVm5NqOiZtZH3bKjH-30" value="- nombre String&lt;div&gt;- numLicencia int&lt;/div&gt;&lt;div&gt;- totalHoras double&lt;/div&gt;&lt;div&gt;- Vuelo []&amp;nbsp; vuelos&lt;/div&gt;" style="text;strokeColor=none;fillColor=none;align=left;verticalAlign=top;spacingLeft=4;spacingRight=4;overflow=hidden;rotatable=0;points=[[0,0.5],[1,0.5]];portConstraint=eastwest;whiteSpace=wrap;html=1;autosize=1;" vertex="1" parent="rQMtVm5NqOiZtZH3bKjH-29">
          <mxGeometry y="30" width="160" height="70" as="geometry" />
        </mxCell>
        <mxCell id="rQMtVm5NqOiZtZH3bKjH-31" value="" style="line;strokeWidth=1;fillColor=none;align=left;verticalAlign=middle;spacingTop=-1;spacingLeft=3;spacingRight=3;rotatable=0;labelPosition=right;points=[];portConstraint=eastwest;strokeColor=inherit;autosize=1;" vertex="1" parent="rQMtVm5NqOiZtZH3bKjH-29">
          <mxGeometry y="100" width="160" height="8" as="geometry" />
        </mxCell>
        <mxCell id="rQMtVm5NqOiZtZH3bKjH-32" value="&lt;div&gt;+ Piloto&lt;/div&gt;+ getVuelos()&lt;div&gt;+ gte()and set()&lt;/div&gt;&lt;div&gt;+ equals()&lt;/div&gt;&lt;div&gt;+agregarVuelo()&lt;/div&gt;&lt;div&gt;+ contarVuelos()&lt;/div&gt;" style="text;strokeColor=none;fillColor=none;align=left;verticalAlign=top;spacingLeft=4;spacingRight=4;overflow=hidden;rotatable=0;points=[[0,0.5],[1,0.5]];portConstraint=eastwest;whiteSpace=wrap;html=1;autosize=1;" vertex="1" parent="rQMtVm5NqOiZtZH3bKjH-29">
          <mxGeometry y="108" width="160" height="100" as="geometry" />
        </mxCell>
        <mxCell id="rQMtVm5NqOiZtZH3bKjH-33" value="Vuelo" style="swimlane;fontStyle=1;align=center;verticalAlign=top;childLayout=stackLayout;horizontal=1;startSize=30;horizontalStack=0;resizeParent=1;resizeParentMax=0;resizeLast=0;collapsible=1;marginBottom=0;whiteSpace=wrap;html=1;autosize=1;" vertex="1" parent="1">
          <mxGeometry x="160" y="-80" width="160" height="218" as="geometry" />
        </mxCell>
        <mxCell id="rQMtVm5NqOiZtZH3bKjH-34" value="- id: int&lt;div&gt;- aerolinea String&lt;/div&gt;&lt;div&gt;- FechaVuelo localDate&lt;/div&gt;&lt;div&gt;- duracion double&lt;/div&gt;&lt;div&gt;- EstadoVuelo estado&lt;/div&gt;" style="text;strokeColor=none;fillColor=none;align=left;verticalAlign=top;spacingLeft=4;spacingRight=4;overflow=hidden;rotatable=0;points=[[0,0.5],[1,0.5]];portConstraint=eastwest;whiteSpace=wrap;html=1;autosize=1;" vertex="1" parent="rQMtVm5NqOiZtZH3bKjH-33">
          <mxGeometry y="30" width="160" height="90" as="geometry" />
        </mxCell>
        <mxCell id="rQMtVm5NqOiZtZH3bKjH-35" value="" style="line;strokeWidth=1;fillColor=none;align=left;verticalAlign=middle;spacingTop=-1;spacingLeft=3;spacingRight=3;rotatable=0;labelPosition=right;points=[];portConstraint=eastwest;strokeColor=inherit;autosize=1;" vertex="1" parent="rQMtVm5NqOiZtZH3bKjH-33">
          <mxGeometry y="120" width="160" height="8" as="geometry" />
        </mxCell>
        <mxCell id="rQMtVm5NqOiZtZH3bKjH-36" value="+ Vuelo()&lt;div&gt;+ get() and set()&lt;/div&gt;&lt;div&gt;+ equals()&lt;/div&gt;&lt;div&gt;+ finalizaVuelo&lt;/div&gt;&lt;div&gt;+ revisaEstadoVuelo&lt;/div&gt;" style="text;strokeColor=none;fillColor=none;align=left;verticalAlign=top;spacingLeft=4;spacingRight=4;overflow=hidden;rotatable=0;points=[[0,0.5],[1,0.5]];portConstraint=eastwest;whiteSpace=wrap;html=1;autosize=1;" vertex="1" parent="rQMtVm5NqOiZtZH3bKjH-33">
          <mxGeometry y="128" width="160" height="90" as="geometry" />
        </mxCell>
        <mxCell id="rQMtVm5NqOiZtZH3bKjH-37" value="InterNacional" style="swimlane;fontStyle=0;childLayout=stackLayout;horizontal=1;startSize=30;fillColor=none;horizontalStack=0;resizeParent=1;resizeParentMax=0;resizeLast=0;collapsible=1;marginBottom=0;whiteSpace=wrap;html=1;autosize=1;" vertex="1" parent="1">
          <mxGeometry x="-160" y="160" width="140" height="60" as="geometry" />
        </mxCell>
        <mxCell id="rQMtVm5NqOiZtZH3bKjH-38" value="Internacional()" style="text;strokeColor=none;fillColor=none;align=left;verticalAlign=top;spacingLeft=4;spacingRight=4;overflow=hidden;rotatable=0;points=[[0,0.5],[1,0.5]];portConstraint=eastwest;whiteSpace=wrap;html=1;autosize=1;" vertex="1" parent="rQMtVm5NqOiZtZH3bKjH-37">
          <mxGeometry y="30" width="140" height="30" as="geometry" />
        </mxCell>
        <mxCell id="rQMtVm5NqOiZtZH3bKjH-39" value="Comercial" style="swimlane;fontStyle=0;childLayout=stackLayout;horizontal=1;startSize=30;fillColor=none;horizontalStack=0;resizeParent=1;resizeParentMax=0;resizeLast=0;collapsible=1;marginBottom=0;whiteSpace=wrap;html=1;autosize=1;" vertex="1" parent="1">
          <mxGeometry x="20" y="160" width="140" height="60" as="geometry" />
        </mxCell>
        <mxCell id="rQMtVm5NqOiZtZH3bKjH-40" value="Comercial()" style="text;strokeColor=none;fillColor=none;align=left;verticalAlign=top;spacingLeft=4;spacingRight=4;overflow=hidden;rotatable=0;points=[[0,0.5],[1,0.5]];portConstraint=eastwest;whiteSpace=wrap;html=1;autosize=1;" vertex="1" parent="rQMtVm5NqOiZtZH3bKjH-39">
          <mxGeometry y="30" width="140" height="30" as="geometry" />
        </mxCell>
        <mxCell id="rQMtVm5NqOiZtZH3bKjH-41" value="VueloException" style="swimlane;fontStyle=0;childLayout=stackLayout;horizontal=1;startSize=30;fillColor=none;horizontalStack=0;resizeParent=1;resizeParentMax=0;resizeLast=0;collapsible=1;marginBottom=0;whiteSpace=wrap;html=1;autosize=1;" vertex="1" parent="1">
          <mxGeometry x="60" y="-180" width="140" height="60" as="geometry" />
        </mxCell>
        <mxCell id="rQMtVm5NqOiZtZH3bKjH-42" value="Excepcion" style="text;strokeColor=none;fillColor=none;align=left;verticalAlign=top;spacingLeft=4;spacingRight=4;overflow=hidden;rotatable=0;points=[[0,0.5],[1,0.5]];portConstraint=eastwest;whiteSpace=wrap;html=1;autosize=1;" vertex="1" parent="rQMtVm5NqOiZtZH3bKjH-41">
          <mxGeometry y="30" width="140" height="30" as="geometry" />
        </mxCell>
        <mxCell id="rQMtVm5NqOiZtZH3bKjH-43" value="" style="endArrow=block;dashed=1;endFill=0;endSize=12;html=1;rounded=0;fontSize=12;curved=1;exitX=1;exitY=0.5;exitDx=0;exitDy=0;entryX=0;entryY=0.5;entryDx=0;entryDy=0;" edge="1" parent="1" source="rQMtVm5NqOiZtZH3bKjH-18" target="rQMtVm5NqOiZtZH3bKjH-30">
          <mxGeometry width="160" relative="1" as="geometry">
            <mxPoint x="-270" y="70" as="sourcePoint" />
            <mxPoint x="-110" y="70" as="targetPoint" />
          </mxGeometry>
        </mxCell>
        <mxCell id="rQMtVm5NqOiZtZH3bKjH-44" value="" style="endArrow=block;dashed=1;endFill=0;endSize=12;html=1;rounded=0;fontSize=12;curved=1;exitX=0.5;exitY=0;exitDx=0;exitDy=0;entryX=0.519;entryY=1;entryDx=0;entryDy=0;entryPerimeter=0;" edge="1" parent="1" source="rQMtVm5NqOiZtZH3bKjH-37" target="rQMtVm5NqOiZtZH3bKjH-32">
          <mxGeometry width="160" relative="1" as="geometry">
            <mxPoint x="-210" y="310" as="sourcePoint" />
            <mxPoint x="-50" y="310" as="targetPoint" />
          </mxGeometry>
        </mxCell>
        <mxCell id="rQMtVm5NqOiZtZH3bKjH-45" value="" style="endArrow=block;dashed=1;endFill=0;endSize=12;html=1;rounded=0;fontSize=12;curved=1;exitX=0.5;exitY=0;exitDx=0;exitDy=0;" edge="1" parent="1" source="rQMtVm5NqOiZtZH3bKjH-39">
          <mxGeometry width="160" relative="1" as="geometry">
            <mxPoint x="-80" y="170" as="sourcePoint" />
            <mxPoint y="130" as="targetPoint" />
          </mxGeometry>
        </mxCell>
        <mxCell id="rQMtVm5NqOiZtZH3bKjH-46" style="edgeStyle=none;curved=1;rounded=0;orthogonalLoop=1;jettySize=auto;html=1;entryX=0.994;entryY=0.02;entryDx=0;entryDy=0;entryPerimeter=0;fontSize=12;startSize=8;endSize=8;" edge="1" parent="1" source="rQMtVm5NqOiZtZH3bKjH-33" target="rQMtVm5NqOiZtZH3bKjH-32">
          <mxGeometry relative="1" as="geometry" />
        </mxCell>
        <mxCell id="rQMtVm5NqOiZtZH3bKjH-47" value="" style="endArrow=block;dashed=1;endFill=0;endSize=12;html=1;rounded=0;fontSize=12;curved=1;exitX=0;exitY=0.5;exitDx=0;exitDy=0;entryX=0.975;entryY=0.111;entryDx=0;entryDy=0;entryPerimeter=0;" edge="1" parent="1" source="rQMtVm5NqOiZtZH3bKjH-22" target="rQMtVm5NqOiZtZH3bKjH-34">
          <mxGeometry width="160" relative="1" as="geometry">
            <mxPoint x="-70" y="180" as="sourcePoint" />
            <mxPoint x="23" y="148" as="targetPoint" />
          </mxGeometry>
        </mxCell>
      </root>
    </mxGraphModel>
  </diagram>
</mxfile>
